<?xml version="1.0" encoding="utf-8"?>
<!-- Generator: Adobe Illustrator 19.1.0, SVG Export Plug-In . SVG Version: 6.00 Build 0)  -->
<svg version="1.1" id="Layer_1" xmlns="http://www.w3.org/2000/svg" xmlns:xlink="http://www.w3.org/1999/xlink" x="0px" y="0px"
	 viewBox="213.6 323.6 324 147.3" style="enable-background:new 213.6 323.6 324 147.3;" xml:space="preserve">
<style type="text/css">
	.st0{fill:#E90B8D;}
</style>
<g>
	<g>
		<path class="st0" d="M275.9,379.5c-0.3,0.8-1.2,1.2-2.7,1.4c0,3.2,0.1,6.2,0.1,9l0.1,4.1c0,0,0,0.1,0.1,0.2
			c0.1,0.1,0.1,0.2,0.1,0.3c0,0.2-0.1,0.4-0.2,0.4c-0.1,0-0.2,0.1-0.4,0.1c-0.3,0-0.6-0.1-1-0.3c-1-0.4-1.5-1.1-1.5-2.1l0.1-2.9
			l0.1-8.7c-2.5,0.2-5.7,0.5-9.6,0.7c0,1.9,0,4.5,0.2,8c0.1,0.6,0.3,1.3,0.5,2.2c0.1,0.2,0.2,0.4,0.2,0.6c0,0.3-0.3,0.5-0.8,0.5
			c-0.8,0-1.4-0.4-2.1-1c-0.6-0.7-0.9-1.4-0.8-2.2c0.1-4,0.1-6.7,0.1-7.9c-0.8,0-1.2,0.1-1.3,0.1c-0.5,0-1.2-0.2-2.2-0.5
			c-1-0.4-1.5-0.8-1.4-1.2v-0.1l0.1-0.1c0.1-0.1,1.9-0.3,5.1-0.6c0-3.4-0.1-8.6-0.2-15.5c-0.1-1.2-0.2-3-0.3-5.4
			c-0.2-0.4-0.3-0.6-0.3-0.8c0-0.1,0-0.2,0.1-0.3c0-0.1,0.2-0.1,0.4-0.1c0.5,0,1.2,0.2,2.1,0.4c1,0.4,1.5,0.7,1.5,1.1
			c0,0.6,0,1.3-0.1,2.3c-0.1,1.1-0.1,2-0.1,2.3c-0.1,2.8-0.2,5.8-0.2,9.1c-0.1,2.3-0.1,4.4-0.2,6.6l9.6-0.6c0.1-3.6,0-9.1-0.1-16.4
			c0-0.5,0-2.2-0.1-4.9c-0.1-2.1-0.1-3.7,0-4.9c0-0.1,0-0.1,0.1-0.1h0.1h0.1c0,0,0.4,0.1,1.1,0.3c1.4,0.4,2.2,0.8,2.2,1.4
			c-0.1,2.4-0.2,6-0.3,10.7c-0.2,4.7-0.3,8.3-0.3,10.7c0,1,0,2.2,0,3.4c0.6,0,1,0.1,1.4,0.1c0.7,0.1,1.1,0.3,1.1,0.5L275.9,379.5z"
			/>
		<path class="st0" d="M289.8,378.8c-0.1,5.4-1.1,9.3-3.2,11.8c-1.1,1.3-2.3,2.1-3.5,2.1c-2.6-0.1-4.5-1.6-5.8-4.6
			c-0.9-2.3-1.3-4.9-1.3-7.9c0-1.4,0.2-3.2,0.6-5.3c0.4-2.7,0.9-4.2,1.5-4.6c0.2-0.1,0.5-0.2,0.9-0.2c0.2,0,0.3,0,0.5,0.1
			c0.6-1.1,1.1-2,1.4-2.4c0.7-0.7,1.5-1.1,2.6-1c0.7,0,1.3,0.2,2,0.5C288.6,369,290,372.9,289.8,378.8z M287.4,379.4
			c0.1-5.9-0.7-9.7-2.6-11.3c-0.3-0.3-0.5-0.4-0.6-0.4c-0.2,0-0.5,0.1-0.8,0.3c-1.6,1.3-2.5,3.9-2.6,7.8c-0.1,2.4,0.3,4.1,1,5.4
			c0.1,0.1,0.3,0.4,0.7,0.8c0.4,0.4,0.6,0.7,0.6,0.8c0,0.3-0.3,0.4-0.8,0.4c-1.5,0-2.7-1.2-3.5-3.7v0.6c-0.1,2.2,0.1,4.2,0.6,6
			c0.6,2.4,1.6,4,3.1,4.9c0.4,0.2,0.6,0.3,0.8,0.3c0.2,0,0.4-0.1,0.7-0.3c1-0.8,2-2.7,2.6-5.5C287.1,383.7,287.3,381.6,287.4,379.4z
			"/>
		<path class="st0" d="M303.3,381.7c0,2.2-0.4,4.4-1.2,6.9c-1,3.3-2.3,4.9-3.8,4.8c-4.8-0.1-7.2-6.4-6.9-18.9c0-1.6,0.1-3.2,0.1-4.5
			c-0.5,0.1-0.8,0.1-0.9,0.1c-0.3,0-0.8-0.1-1.4-0.4c-0.6-0.2-0.9-0.5-0.9-0.7c0-0.1,0.3-0.2,0.9-0.3l2.7-0.3
			c0.2-2.1,0.4-5.1,0.8-9.2c0,0,0.1,0,0.2,0c0.2,0,0.4,0,0.7,0.1c1.5,0.4,2.4,0.9,2.5,1.5c-0.2,1.1-0.3,2.4-0.5,3.7
			c-0.2,1.1-0.3,2.3-0.4,3.4c3.8-0.3,5.8-0.5,5.7-0.5c0.2,0,0.3,0.1,0.3,0.2c0,0.4-0.4,0.7-1.2,0.9c0.1,0.1,0.1,0.1,0.1,0.2
			c0,0.2-0.1,0.4-0.4,0.6c-0.1,0.1-1.6,0.2-4.7,0.5c-0.2,1.9-0.3,3.4-0.3,4.6c-0.1,4.1,0,7.1,0.1,9.1c0.3,4,1.2,6.7,2.6,7.9
			c0.3,0.3,0.6,0.4,0.8,0.5c1.2-0.9,2.3-2.6,3-5.1c0.5-1.5,0.8-3.2,1.1-5.1c0.1-0.7,0.2-1,0.5-1
			C303.1,381.1,303.3,381.3,303.3,381.7z"/>
		<path d="M321.3,387.6c0,1.1-0.2,2.5-0.7,4.1c-0.5,2.2-1.2,3.2-2,3.2c-0.1,0-0.2,0-0.3,0c-1.4-0.3-2.4-1.6-3-4.2
			c-0.4-1.6-0.5-3.5-0.5-5.8c0-1.4,0.1-3,0.2-4.6c-0.8,4.1-1.3,7.2-1.6,9.4c-0.2,1.4-0.4,2.4-0.4,2.7c0,0.2,0,0.5,0,0.8
			c0,0.4,0,0.6,0,0.8c0,0.2-0.1,0.3-0.4,0.3c-0.7,0-1.1-0.2-1.4-0.6c-0.1-0.2-0.2-0.4-0.2-0.6c-0.1-1.5-0.4-6.3-0.7-14.1
			c-0.5,3-1,5.7-1.3,8c-0.4,3.3-0.7,5.6-0.7,6.9c0,0.1,0,0.5,0,1.1c0,0.1,0.1,0.2,0.1,0.2c0,0.1,0,0.1,0,0.1c0,0.1-0.2,0.2-0.4,0.2
			s-0.4-0.1-0.8-0.2c-0.4-0.1-0.6-0.3-0.7-0.4c-0.1-0.1-0.1-0.3-0.1-0.5c-0.1-3.5-0.3-8.7-0.6-15.7c-0.1-1.2-0.2-3-0.5-5.4
			c-0.1-0.3-0.2-0.5-0.3-0.5c-0.4,0-1,1-1.9,3c-0.8,1.9-1.1,3.2-1.2,3.8c0.1,0.1,0.1,0.2,0,0.3c-0.3,0-0.6-0.1-0.9-0.3
			c-0.3-0.2-0.5-0.4-0.4-0.7c0-0.2,0.2-0.7,0.5-1.6c0.4-1.1,0.9-2.2,1.4-3.1c0.8-1.4,1.6-2.1,2.3-2.1c0.8,0,1.4,0.5,1.9,1.3
			c0.9,1.9,1.4,7.3,1.4,16.4c0.1-0.7,0.2-1.9,0.5-3.6c0.3-2.5,0.8-5.6,1.4-9.5c0.1-0.5,0.2-1.3,0.4-2.4c0-0.1,0.1-0.1,0.2-0.1
			c0,0,0.3,0.1,0.7,0.2c0.7,0.2,1.1,0.4,1.3,0.5c0.1,0.2,0.2,0.6,0.2,1.3c-0.1,3.3,0,7.5,0.1,12.6c0.4-2.5,1.1-6.3,2.2-11.3l0.3-1.4
			c0-0.2,0.2-0.3,0.4-0.3c0.1,0,0.6,0.2,1.4,0.5c0.3,0.1,0.4,0.4,0.4,1l-0.2,1.5c-0.3,2.9-0.4,4.7-0.4,5.5c-0.1,5.2,0.4,8.2,1.6,9.3
			c0.5-0.1,1-1.1,1.5-2.9c0.1-0.4,0.3-1.5,0.7-3.5c0-0.2,0.2-0.3,0.4-0.2C321.2,387,321.3,387.2,321.3,387.6z"/>
		<path d="M331,388.7c0,0.8-0.2,1.9-0.5,3.1c-0.5,1.5-0.9,2.4-1.5,2.4c-0.9,0-1.8-0.8-2.4-2.5c-0.4-1.1-0.7-2.3-0.8-3.6
			c-0.4,3.8-1.2,5.7-2.2,5.7c-0.5,0-1.1-0.3-1.6-0.8c-1.3-1.3-2.1-3.8-2-7.1c0-0.4,0.1-1,0.2-1.8c0.3-1.4,0.7-2.8,1.4-4
			c0.9-1.6,1.8-2.5,2.6-2.5c0.4,0,1,0.3,1.9,1c0.8,0.6,1.2,1.1,1.2,1.3c0,0.2-0.1,0.2-0.2,0.2c0,0-0.2-0.2-0.6-0.5
			c-0.4-0.3-0.7-0.5-1-0.5c-0.2,0-0.4,0.1-0.6,0.2c-1,0.6-1.9,1.8-2.4,3.6c-0.5,1.4-0.7,2.9-0.8,4.4c0,2,0.2,3.5,0.8,4.6
			c0.3,0.6,0.5,0.9,0.7,0.9c0.1,0,0.3-0.1,0.5-0.4c0.8-1.1,1.4-4.2,1.9-9.2c0.1-1,0.2-1.5,0.4-1.4c0.4,0,0.7,0.1,1.1,0.2
			c0.5,0.2,0.7,0.4,0.7,0.7c0,0.4,0,0.9-0.1,1.6c-0.1,0.7-0.1,1.3-0.1,1.6c0,1.3,0,2.6,0.2,3.7c0.2,1.8,0.6,2.8,1.2,3.2
			c0.5-0.7,1-2,1.3-3.8c0.1-0.6,0.3-1,0.4-0.9C330.9,388.3,331,388.4,331,388.7z"/>
		<path d="M343.9,389.1c0,0.7-0.2,1.6-0.5,2.7c-0.4,1.3-0.8,2.2-1.2,2.3c-0.1,0-0.2,0.1-0.5,0c-1.2,0-2.1-0.9-2.6-2.8
			c-0.3-1.1-0.4-2.6-0.4-4.2c0-0.9,0.1-1.8,0.1-2.5c-1.1,4.1-1.8,7-1.8,8.5c0,0.2,0,0.4,0.2,0.8c0,0.2-0.1,0.2-0.2,0.2
			c-0.3,0-0.6-0.1-0.9-0.3c-0.3-0.2-0.5-0.4-0.6-0.7s-0.2-3.3-0.3-9l-1.3,5.2c-0.5,2-0.7,3.1-0.7,3.3s0,0.4,0.1,0.7
			c0,0.3,0.1,0.5,0.1,0.7s-0.1,0.2-0.3,0.2c-0.1,0-0.3,0-0.5-0.1c-0.8-0.3-1.2-0.8-1.2-1.3l-0.1-6.7c-0.1,1.1-0.2,2-0.2,2.4
			c-0.1,1.3-0.3,2.1-0.4,2.2h-0.1c-0.4,0-0.5-0.2-0.4-0.5c0.1-0.4,0.2-0.8,0.3-1.2c0.4-2.1,0.6-4.7,0.7-7.9c0-0.7,0-1.3,0-1.9
			c0-0.1-0.1-0.3-0.1-0.6l0.1-0.1c0,0,0.3,0.1,0.9,0.2c0.5,0.1,0.7,0.3,0.9,0.5c0.1,0.2,0.2,0.5,0.2,1l-0.1,9.5l2.2-8.7
			c0.1-0.5,0.3-0.8,0.6-0.8c0,0,0.1,0,0.3,0.1c0.5,0.1,0.8,0.2,0.9,0.3c0.3,0.2,0.5,0.4,0.5,0.7c0-0.1,0,0.3-0.1,1.2
			c-0.1,1.1-0.1,2.3-0.2,3.5v1.8c0,0.5,0,1.1,0,1.8l2-7.8c0.1-0.3,0.2-0.4,0.4-0.4c0,0,0.2,0.1,0.6,0.2c0.4,0.1,0.7,0.2,0.7,0.2
			c0.2,0.1,0.3,0.4,0.3,0.7c0,0.1-0.1,0.7-0.2,1.8c-0.2,1.1-0.3,2.2-0.3,3.1c-0.1,3.5,0.3,5.5,1.3,5.8c0.4-0.2,0.9-1.5,1.5-4
			c0-0.2,0.1-0.4,0.3-0.3C343.8,388.9,343.9,389,343.9,389.1z"/>
		<path d="M353.8,389.2c0,0.8-0.2,1.9-0.5,3.1c-0.5,1.5-0.9,2.4-1.5,2.4c-0.9,0-1.8-0.8-2.4-2.5c-0.4-1.1-0.7-2.3-0.8-3.6
			c-0.4,3.8-1.2,5.7-2.2,5.7c-0.5,0-1.1-0.3-1.6-0.8c-1.3-1.3-2.1-3.8-2-7.1c0-0.4,0.1-1,0.2-1.8c0.3-1.4,0.7-2.8,1.4-4
			c0.9-1.6,1.9-2.5,2.6-2.5c0.4,0,1,0.3,1.9,1c0.8,0.6,1.2,1.1,1.2,1.3c0,0.2-0.1,0.2-0.2,0.2c0,0-0.2-0.2-0.6-0.5
			c-0.4-0.3-0.7-0.5-1-0.5c-0.2,0-0.4,0.1-0.6,0.2c-1,0.6-1.9,1.8-2.4,3.6c-0.5,1.4-0.7,2.9-0.8,4.4c0,2,0.2,3.5,0.8,4.6
			c0.3,0.6,0.5,0.9,0.7,0.9c0.1,0,0.3-0.1,0.5-0.4c0.8-1.1,1.4-4.2,1.9-9.2c0.1-1,0.2-1.5,0.4-1.4c0.4,0,0.7,0.1,1.1,0.2
			c0.5,0.2,0.7,0.4,0.7,0.7c0,0.4,0,0.9-0.1,1.6s-0.1,1.3-0.1,1.6c0,1.3,0,2.6,0.2,3.7c0.2,1.8,0.6,2.8,1.2,3.2c0.5-0.7,1-2,1.3-3.8
			c0.1-0.6,0.3-1,0.4-0.9C353.7,388.9,353.8,389,353.8,389.2z"/>
	</g>
	<g>
		<g>
			<path d="M403.9,408.2c1,0,2-0.7,2.2-1.8c0.1-0.5,2.8-14-2.2-24.2c-0.7-1.4-2.8-4-6-4.5c-3.3-0.5-6.8,1.2-10.5,5.2l-0.1,0.1
				c-0.1,0.1-6.3,7.7-13.2,7.4c-3.4-0.1-6.5-2.3-9.2-6.3c0,0-2-3.1-3.5-10.8c-0.2-1.2-1.3-2-2.6-1.8c-1.1,0.2-2,1.3-1.8,2.6
				c1.6,8.6,3.9,12.1,4.1,12.5c3.6,5.3,7.8,8,12.7,8.2c8.8,0.3,15.9-8,16.7-9c2.6-2.7,4.8-4,6.6-3.7c1.8,0.2,2.8,2.2,2.8,2.2
				c4.3,8.9,1.9,21.2,1.9,21.3c-0.2,1.1,0.5,2.4,1.6,2.6C403.5,408.2,403.8,408.2,403.9,408.2z"/>
		</g>
	</g>
	<g>
		<g>
			<path class="st0" d="M448.9,458.1v-47.6h-8.1c-1.6,0-2.4,1.1-2.4,3.3v4.9l-10.7-0.7v-17.8h54.9V418l-10.7,0.7v-5.1
				c0-1.2-0.2-2.1-0.5-2.5c-0.3-0.5-1.2-0.7-2.5-0.7h-7.1v50.2l8.2,0.3v9h-29.7v-8.5l5.6-0.3C447.9,460.7,448.9,459.8,448.9,458.1z"
				/>
			<path class="st0" d="M537.6,469.8h-49.9v-8.5l3.5-0.3c2.1-0.2,3.1-1.2,3.1-3v-48.9l-6-0.3v-9h47.9v17.4l-10.7,0.7v-4.2
				c0-1.2-0.2-2.1-0.5-2.5c-0.3-0.5-1.2-0.7-2.5-0.7h-15.6v17.9h24.2v10.7h-24.2v19.6h16.9c1.2,0,2.1-0.3,2.4-0.8
				c0.3-0.5,0.5-1.3,0.5-2.6v-5.3l10.7,0.7v18.9H537.6z"/>
		</g>
		<g>
			<path class="st0" d="M220.2,457.5v-48.2l-6-0.3v-9h25.4v8.5l-3.5,0.3c-2.1,0.2-3.1,1.3-3.1,3.4v48.3l6,0.3v9h-25.4v-8.5l3.5-0.3
				c1-0.1,1.9-0.4,2.3-0.9C219.8,459.6,220.2,458.8,220.2,457.5z"/>
			<path class="st0" d="M301.7,445.3v19c-6.5,4.4-14.6,6.7-24.2,6.7c-9.7,0-17.2-3-22.6-9.1c-5.5-6.1-8.1-15.1-8.1-26.9
				c0-5.3,0.7-10,2.1-14.1c1.3-4.2,3.2-7.6,5.4-10.4c2.2-2.7,4.7-5.1,7.7-6.8c5.6-3.3,12-4.9,19.1-4.9s13.7,1.4,19.9,4.3v17.8
				l-10.7,0.7v-8.1c0-1-0.1-1.9-0.4-2.3c-0.7-1.3-3.9-2-9.6-2c-13.5,0-20.3,8.4-20.3,25c0,17.6,6.1,26.5,18.2,26.5
				c4.8,0,8.6-0.8,11.1-2.5v-15.8h-0.1l-8-0.3v-9h26.2v8.4l-2.4,0.2c-1.1,0.1-2,0.4-2.4,0.9C301.9,443.2,301.7,444,301.7,445.3z"/>
			<path class="st0" d="M313.1,469.8v-8.5l3.8-0.3c1.9-0.1,2.7-1.1,2.7-3v-48.9l-6-0.3v-9h18.9l29.7,48.1h0.2v-39l-6.9-0.3v-9h25.6
				v8.5l-3.8,0.3c-1.6,0.1-2.5,1.2-2.5,3.3v57.7h-12.3l-30.3-48.8H332v39.7l6.8,0.3v9H313.1z"/>
		</g>
		<rect x="396.4" y="400.1" width="16.1" height="69.6"/>
	</g>
	<polygon class="st0" points="367.2,370.7 373.5,351.1 366.6,354.6 370.1,336 358.5,350.4 347.3,323.6 346.7,352.8 331.5,347.3 
		342.9,363 332.3,366.3 351.5,374.6 346,368.1 353,366.1 346.6,359.6 353,362.2 352,349.7 357.5,362.4 362.2,353.4 360.7,364.3 
		367.5,360.3 	"/>
</g>
</svg>
